<svg xmlns="http://www.w3.org/2000/svg" viewBox="0 0 64 64" role="img" aria-label="OpenClaw">
  <defs>
    <linearGradient id="openclaw-bg" x1="10" y1="8" x2="54" y2="58" gradientUnits="userSpaceOnUse">
      <stop stop-color="#0ea5e9"/>
      <stop offset="1" stop-color="#1e3a8a"/>
    </linearGradient>
    <linearGradient id="openclaw-claw" x1="18" y1="15" x2="49" y2="50" gradientUnits="userSpaceOnUse">
      <stop stop-color="#ffb347"/>
      <stop offset="1" stop-color="#f97316"/>
    </linearGradient>
  </defs>
  <rect x="6" y="6" width="52" height="52" rx="14" fill="url(#openclaw-bg)"/>
  <path d="M23 44c-4.8-3.5-7.2-8.4-7.2-14.6 0-4.5 1.3-8.1 3.9-10.9 1.9 5.6 5.2 9 10 10.2-4.2-5.5-4.5-10.9-.8-16.2 5.3 3.4 8.2 8.5 8.5 15.2 3.8-1.5 6.6-4.6 8.5-9.2 2.6 2.7 3.9 6.1 3.9 10.1 0 6.7-2.9 11.8-8.8 15.4" fill="none" stroke="url(#openclaw-claw)" stroke-width="5.2" stroke-linecap="round" stroke-linejoin="round"/>
  <path d="M23 44h18" stroke="#e0f2fe" stroke-width="4.2" stroke-linecap="round"/>
  <circle cx="32" cy="34" r="3.2" fill="#e0f2fe"/>
</svg>
